<svg id="svg" version="1.1" xmlns="http://www.w3.org/2000/svg" xmlns:xlink="http://www.w3.org/1999/xlink" width="400" height="400" viewBox="0, 0, 400,400"><g id="svgg"><path id="path0" d="M184.000 0.400 C 184.000 0.620,183.401 0.800,182.669 0.800 C 181.439 0.800,181.351 0.885,181.503 1.920 C 181.750 3.601,180.445 4.000,174.707 4.000 C 170.376 4.000,169.758 4.088,168.986 4.813 C 168.274 5.482,167.383 5.669,163.960 5.866 C 161.023 6.035,159.588 6.291,159.077 6.735 C 158.182 7.515,153.344 7.904,152.689 7.249 C 152.032 6.592,151.778 6.695,151.707 7.645 C 151.598 9.093,150.473 10.008,149.335 9.575 C 147.783 8.985,146.403 9.125,146.117 9.900 C 145.718 10.980,145.180 11.187,142.754 11.194 C 141.174 11.198,140.225 11.422,139.554 11.948 C 137.672 13.423,134.645 13.500,134.272 12.081 C 134.165 11.673,134.074 11.829,134.046 12.471 C 133.997 13.605,133.075 14.800,132.249 14.800 C 131.978 14.800,131.160 15.239,130.433 15.776 C 129.319 16.598,128.809 16.716,127.201 16.526 C 125.399 16.312,125.261 16.364,124.735 17.450 C 124.253 18.446,123.986 18.583,122.743 18.475 C 121.552 18.371,121.268 18.497,121.081 19.213 C 120.877 19.991,120.632 20.063,118.627 19.939 C 116.696 19.818,116.399 19.896,116.399 20.520 C 116.400 20.963,115.871 21.462,115.027 21.814 C 114.272 22.130,113.550 22.557,113.423 22.763 C 113.295 22.970,112.672 23.253,112.037 23.392 C 111.402 23.531,110.566 23.995,110.179 24.423 C 109.793 24.850,109.159 25.200,108.771 25.200 C 107.656 25.200,106.800 25.639,106.800 26.211 C 106.800 26.500,106.279 26.851,105.641 26.991 C 105.004 27.131,104.166 27.595,103.779 28.023 C 103.359 28.487,102.555 28.800,101.784 28.800 C 100.847 28.800,100.312 29.075,99.837 29.800 C 99.374 30.506,98.822 30.800,97.959 30.800 C 96.801 30.800,96.751 30.865,97.008 32.035 C 97.266 33.212,97.237 33.248,96.397 32.798 C 95.428 32.280,95.031 32.511,94.221 34.066 C 93.953 34.580,93.479 34.933,93.167 34.851 C 92.855 34.769,92.285 34.613,91.900 34.505 C 91.437 34.374,91.200 34.529,91.200 34.963 C 91.200 35.324,90.750 35.791,90.200 36.000 C 89.588 36.233,89.200 36.694,89.200 37.190 C 89.200 37.733,88.937 38.000,88.400 38.000 C 87.960 38.000,87.240 38.360,86.800 38.800 C 86.360 39.240,85.721 39.600,85.380 39.600 C 84.681 39.600,82.000 42.057,82.000 42.698 C 82.000 43.306,80.882 43.636,79.768 43.356 C 79.040 43.174,78.800 43.275,78.800 43.767 C 78.800 44.126,78.350 44.591,77.800 44.800 C 77.250 45.009,76.800 45.443,76.800 45.763 C 76.800 46.084,76.440 46.460,76.000 46.600 C 75.560 46.740,75.200 46.989,75.200 47.155 C 75.200 47.672,72.953 50.000,72.454 50.000 C 72.194 50.000,71.809 50.450,71.600 51.000 C 71.391 51.550,70.952 52.000,70.624 52.000 C 70.296 52.000,69.835 52.360,69.600 52.800 C 69.365 53.240,68.917 53.600,68.607 53.600 C 68.296 53.600,67.556 54.050,66.962 54.600 C 66.369 55.150,65.549 55.600,65.142 55.600 C 64.734 55.600,64.400 55.835,64.400 56.122 C 64.400 56.769,61.937 59.200,61.281 59.200 C 61.016 59.200,60.800 59.442,60.800 59.738 C 60.800 60.034,60.445 60.598,60.010 60.991 C 59.576 61.384,59.100 62.087,58.954 62.553 C 58.807 63.019,57.948 64.134,57.044 65.030 C 56.140 65.927,54.230 67.958,52.800 69.543 C 49.951 72.701,48.381 74.316,46.220 76.310 C 45.117 77.328,44.800 77.931,44.800 79.010 C 44.800 80.117,44.643 80.400,44.027 80.400 C 43.602 80.400,43.140 80.760,43.000 81.200 C 42.860 81.640,42.484 82.000,42.163 82.000 C 41.843 82.000,41.418 82.425,41.221 82.945 C 41.023 83.465,40.577 84.000,40.231 84.133 C 39.884 84.266,39.600 84.831,39.600 85.387 C 39.600 86.045,39.005 86.995,37.900 88.100 C 36.285 89.715,35.412 90.984,34.409 93.176 C 34.163 93.712,33.611 94.397,33.181 94.698 C 32.752 94.999,32.400 95.699,32.400 96.254 C 32.400 97.185,29.637 100.400,28.837 100.400 C 28.673 100.400,28.616 100.927,28.710 101.571 C 28.839 102.445,28.669 102.875,28.041 103.267 C 27.516 103.595,27.200 104.208,27.200 104.899 C 27.200 105.581,26.816 106.339,26.200 106.875 C 25.581 107.413,25.200 108.169,25.200 108.858 C 25.200 109.581,24.904 110.130,24.357 110.423 C 23.689 110.780,23.564 111.119,23.752 112.061 C 23.938 112.989,23.779 113.443,23.022 114.144 C 22.490 114.637,21.930 115.539,21.777 116.148 C 21.624 116.758,21.162 117.467,20.750 117.724 C 20.319 117.993,20.000 118.650,20.000 119.268 C 20.000 120.283,19.114 121.600,18.430 121.600 C 18.258 121.600,18.202 122.479,18.305 123.554 C 18.462 125.184,18.347 125.653,17.612 126.388 C 17.029 126.971,16.805 127.564,16.949 128.138 C 17.210 129.178,16.904 129.720,15.700 130.354 C 14.957 130.746,14.800 131.164,14.800 132.756 C 14.800 134.253,14.579 134.922,13.809 135.752 C 12.962 136.666,12.853 137.075,13.058 138.570 C 13.274 140.143,13.193 140.386,12.249 141.005 C 11.287 141.635,11.200 141.917,11.200 144.423 C 11.200 146.792,11.082 147.237,10.311 147.777 C 9.590 148.282,9.409 148.824,9.353 150.650 C 9.281 152.992,8.779 153.749,7.500 153.443 C 6.622 153.232,6.194 153.835,7.002 154.146 C 8.043 154.545,7.840 160.960,6.752 162.048 C 5.979 162.821,5.900 163.366,5.852 168.271 C 5.802 173.394,5.757 173.679,4.873 174.345 C 3.948 175.043,3.946 175.066,4.073 183.294 L 4.200 191.544 3.101 192.693 L 2.002 193.841 2.039 201.299 C 2.075 208.666,2.087 208.765,3.015 209.373 C 3.943 209.981,3.956 210.088,4.077 218.178 C 4.190 225.692,4.263 226.413,4.963 226.924 C 5.638 227.417,5.730 228.051,5.766 232.444 C 5.804 237.023,5.877 237.477,6.704 238.304 C 7.757 239.357,8.080 245.740,7.100 246.135 C 6.825 246.246,7.073 246.351,7.651 246.368 C 9.219 246.416,9.738 247.303,9.484 249.503 C 9.290 251.187,9.379 251.492,10.278 252.218 C 11.198 252.963,11.286 253.294,11.247 255.874 C 11.207 258.509,11.278 258.759,12.242 259.391 C 13.187 260.010,13.256 260.232,13.011 261.863 C 12.773 263.455,12.858 263.762,13.771 264.608 C 15.175 265.910,15.165 269.200,13.757 269.200 C 13.451 269.200,13.214 269.515,13.232 269.900 C 13.250 270.318,13.344 270.399,13.465 270.100 C 14.003 268.767,16.400 269.868,16.400 271.447 C 16.400 272.845,16.824 273.600,17.609 273.600 C 18.513 273.600,18.750 274.226,18.490 275.923 C 18.331 276.962,18.471 277.375,19.144 277.846 C 19.724 278.252,20.000 278.870,20.000 279.761 C 20.000 280.503,20.349 281.480,20.800 282.000 C 21.240 282.507,21.614 283.120,21.631 283.361 C 21.684 284.129,21.935 285.270,22.070 285.358 C 22.141 285.404,22.698 285.754,23.307 286.135 C 24.217 286.704,24.341 286.962,24.007 287.587 C 23.399 288.723,23.505 289.117,24.500 289.422 C 26.066 289.902,26.401 290.361,25.933 291.386 C 25.586 292.149,25.667 292.467,26.395 293.195 C 26.993 293.793,27.217 294.399,27.089 295.070 C 26.944 295.829,27.123 296.164,27.850 296.495 C 28.372 296.734,28.800 297.163,28.800 297.449 C 28.800 297.735,29.145 298.291,29.568 298.684 C 29.990 299.078,30.460 299.900,30.614 300.511 C 30.767 301.121,31.231 301.803,31.646 302.025 C 32.121 302.279,32.400 302.861,32.400 303.600 C 32.400 304.346,32.679 304.921,33.167 305.183 C 33.590 305.409,34.050 306.116,34.190 306.755 C 34.331 307.394,34.795 308.234,35.223 308.621 C 35.650 309.007,36.000 309.560,36.000 309.848 C 36.000 310.136,36.348 310.558,36.773 310.786 C 37.198 311.013,37.654 311.540,37.786 311.956 C 37.918 312.373,38.381 312.806,38.813 312.919 C 39.379 313.067,39.600 313.468,39.600 314.348 C 39.600 315.162,39.868 315.715,40.400 316.000 C 40.840 316.235,41.200 316.663,41.200 316.950 C 41.200 317.237,41.650 317.677,42.200 317.927 C 42.991 318.288,43.200 318.677,43.200 319.791 C 43.200 320.787,43.379 321.200,43.810 321.200 C 44.145 321.200,44.591 321.650,44.800 322.200 C 45.228 323.326,45.801 323.496,46.145 322.600 C 46.271 322.270,46.640 322.000,46.964 322.000 C 47.885 322.000,48.193 322.870,47.461 323.405 C 47.097 323.671,46.800 323.997,46.800 324.130 C 46.800 324.580,52.651 330.197,53.697 330.751 C 54.584 331.220,54.677 331.433,54.329 332.195 C 53.935 333.060,66.307 346.400,67.504 346.400 C 67.709 346.400,68.202 346.760,68.600 347.200 C 68.998 347.640,69.575 348.000,69.881 348.000 C 70.188 348.000,71.681 349.260,73.200 350.800 C 74.719 352.340,76.059 353.600,76.177 353.600 C 76.522 353.600,78.800 356.084,78.800 356.459 C 78.800 356.647,79.288 356.800,79.885 356.800 C 80.517 356.800,81.393 357.227,81.985 357.823 C 84.677 360.535,86.505 361.960,87.603 362.201 C 88.265 362.346,88.985 362.798,89.203 363.205 C 89.421 363.613,89.959 364.060,90.400 364.200 C 90.840 364.340,91.200 364.712,91.200 365.027 C 91.200 365.400,91.629 365.600,92.431 365.600 C 93.768 365.600,96.800 368.294,96.800 369.482 C 96.800 369.975,96.916 370.002,97.381 369.616 C 98.118 369.004,99.477 369.423,100.014 370.427 C 100.304 370.969,100.854 371.200,101.852 371.200 C 102.918 371.200,103.325 371.392,103.475 371.966 C 103.585 372.387,104.096 372.838,104.610 372.967 C 105.124 373.096,105.783 373.440,106.075 373.732 C 106.367 374.025,107.137 374.519,107.786 374.832 C 108.460 375.156,109.066 375.827,109.200 376.396 C 109.358 377.068,109.534 377.231,109.741 376.896 C 110.193 376.164,111.467 376.293,112.284 377.153 C 112.678 377.568,113.594 378.034,114.319 378.189 C 115.045 378.345,115.853 378.816,116.115 379.236 C 116.378 379.656,116.984 380.000,117.464 380.000 C 118.941 380.000,119.600 380.445,119.600 381.443 C 119.600 382.417,120.152 382.725,120.600 382.000 C 121.156 381.101,124.390 381.540,124.863 382.579 C 125.196 383.309,125.675 383.589,126.747 383.679 C 128.415 383.819,129.535 385.691,128.385 386.417 C 128.010 386.655,127.974 386.790,128.286 386.794 C 128.553 386.797,128.965 386.440,129.200 386.000 C 129.864 384.759,132.500 384.893,133.545 386.221 C 134.246 387.112,134.614 387.230,136.442 387.146 C 138.212 387.066,138.626 387.186,139.117 387.925 C 139.597 388.649,140.079 388.800,141.903 388.800 C 143.709 388.800,144.267 388.972,144.987 389.748 C 145.746 390.568,146.136 390.669,147.874 390.502 C 150.493 390.251,151.600 390.837,151.600 392.476 C 151.600 393.629,151.653 393.678,152.300 393.116 C 153.783 391.829,157.525 391.996,159.200 393.425 C 159.551 393.725,161.599 394.056,164.141 394.226 C 168.445 394.512,168.488 394.525,169.239 395.757 C 169.656 396.441,169.998 396.775,169.999 396.500 C 170.000 396.127,171.250 396.000,174.911 396.000 C 180.441 396.000,181.832 396.475,181.493 398.249 C 181.264 399.445,183.033 399.590,184.682 398.510 C 186.298 397.450,214.745 397.442,216.680 398.500 C 218.721 399.616,221.539 399.463,221.307 398.249 C 220.975 396.513,222.384 396.000,227.479 396.000 C 231.274 396.000,232.186 395.875,233.290 395.201 C 234.192 394.651,235.308 394.403,236.874 394.401 C 238.125 394.401,239.613 394.223,240.181 394.007 C 241.283 393.588,243.098 394.794,242.594 395.610 C 242.464 395.819,242.611 395.894,242.920 395.775 C 243.271 395.641,243.411 395.192,243.294 394.578 C 242.969 392.878,243.789 392.400,247.035 392.400 C 249.562 392.400,250.032 392.288,250.400 391.600 C 250.743 390.958,251.241 390.799,252.914 390.795 C 255.510 390.788,256.800 390.458,256.800 389.800 C 256.800 389.194,258.056 388.813,260.079 388.805 C 261.098 388.802,261.895 388.488,262.638 387.800 C 263.231 387.250,263.826 386.808,263.958 386.817 C 264.091 386.827,264.960 386.982,265.889 387.162 C 266.818 387.342,267.499 387.360,267.402 387.202 C 267.048 386.631,269.035 385.256,270.397 385.130 C 271.474 385.030,271.919 384.739,272.338 383.861 C 272.733 383.033,273.002 382.842,273.321 383.161 C 274.073 383.913,276.323 383.691,276.791 382.817 C 277.036 382.359,277.830 381.922,278.705 381.764 C 279.527 381.615,280.522 381.158,280.916 380.747 C 281.868 379.753,284.599 379.723,285.168 380.700 C 285.535 381.331,285.577 381.314,285.588 380.533 C 285.606 379.246,286.017 378.400,286.623 378.400 C 286.918 378.400,287.304 378.156,287.480 377.858 C 287.894 377.157,289.347 376.400,290.277 376.400 C 290.679 376.400,291.232 376.040,291.507 375.600 C 291.824 375.093,292.440 374.800,293.189 374.800 C 293.946 374.800,294.520 374.523,294.783 374.033 C 295.009 373.610,295.780 373.136,296.497 372.979 C 297.213 372.821,298.021 372.377,298.291 371.992 C 298.561 371.607,299.281 371.166,299.891 371.013 C 300.501 370.860,301.322 370.390,301.716 369.968 C 302.109 369.545,302.665 369.200,302.951 369.200 C 303.237 369.200,303.686 368.729,303.949 368.153 C 304.352 367.268,304.609 367.142,305.605 367.341 C 306.507 367.521,306.879 367.399,307.189 366.821 C 307.411 366.405,308.180 365.936,308.897 365.779 C 309.613 365.621,310.435 365.157,310.723 364.746 C 311.010 364.336,311.462 364.000,311.726 364.000 C 311.991 364.000,312.432 363.640,312.707 363.200 C 313.027 362.687,313.640 362.400,314.413 362.400 C 315.332 362.400,315.710 362.162,316.000 361.400 C 316.209 360.850,316.572 360.400,316.806 360.400 C 317.039 360.400,317.988 359.672,318.914 358.783 C 319.839 357.894,321.035 357.056,321.570 356.922 C 322.106 356.787,323.626 355.535,324.948 354.139 C 326.270 352.742,327.576 351.600,327.849 351.600 C 328.122 351.600,328.460 351.240,328.600 350.800 C 328.740 350.360,329.083 350.000,329.363 350.000 C 329.643 350.000,330.077 349.550,330.327 349.000 C 330.578 348.450,331.110 348.000,331.511 348.000 C 331.911 348.000,333.580 346.735,335.219 345.190 C 336.859 343.644,338.579 342.024,339.042 341.590 C 339.505 341.155,340.090 340.800,340.342 340.800 C 340.594 340.800,340.800 340.526,340.800 340.190 C 340.800 339.855,341.225 339.419,341.744 339.221 C 342.329 338.999,342.775 338.426,342.917 337.713 C 343.063 336.987,343.563 336.356,344.274 336.000 C 345.930 335.172,348.000 332.794,348.000 331.719 C 348.000 331.105,348.349 330.624,349.015 330.320 C 349.706 330.006,349.950 329.656,349.777 329.229 C 349.457 328.437,349.276 327.702,349.499 328.100 C 349.739 328.530,351.600 328.472,351.600 328.034 C 351.600 327.715,353.268 325.929,354.868 324.537 C 355.161 324.282,355.760 323.596,356.200 323.012 C 356.640 322.428,357.315 321.651,357.700 321.286 C 358.089 320.917,358.400 320.040,358.400 319.311 C 358.400 318.262,358.562 318.000,359.209 318.000 C 359.683 318.000,360.206 317.587,360.473 317.000 C 360.723 316.450,361.154 316.000,361.429 316.000 C 361.704 316.000,362.050 315.288,362.197 314.417 C 362.376 313.356,362.718 312.753,363.232 312.590 C 363.655 312.456,364.000 312.110,364.000 311.822 C 364.000 311.534,364.253 311.088,364.561 310.832 C 364.870 310.576,365.610 309.371,366.205 308.155 C 366.825 306.887,367.695 305.757,368.243 305.508 C 368.904 305.207,369.200 304.742,369.200 304.006 C 369.200 303.386,369.618 302.546,370.200 302.000 C 370.750 301.483,371.200 300.828,371.200 300.544 C 371.200 300.260,371.560 299.835,372.000 299.600 C 372.440 299.365,372.803 298.773,372.806 298.286 C 372.814 297.196,373.186 296.621,374.100 296.283 C 374.582 296.105,374.800 295.594,374.800 294.640 C 374.800 293.605,375.003 293.190,375.600 293.000 C 376.164 292.821,376.400 292.395,376.400 291.554 C 376.400 290.796,376.764 290.024,377.400 289.435 C 377.950 288.925,378.400 288.107,378.400 287.617 C 378.400 287.127,378.760 286.269,379.200 285.709 C 379.640 285.150,380.000 284.378,380.000 283.995 C 380.000 283.612,380.289 283.058,380.642 282.765 C 381.777 281.823,382.090 280.397,381.394 279.335 C 380.634 278.175,380.913 277.600,382.236 277.600 C 383.523 277.600,383.830 276.723,382.991 275.442 C 382.329 274.432,382.338 274.410,383.760 273.570 C 384.758 272.982,385.200 272.435,385.200 271.789 C 385.200 270.557,386.207 269.600,387.505 269.600 C 388.462 269.600,388.491 269.555,387.843 269.081 C 386.803 268.320,386.877 265.137,387.967 263.752 C 388.456 263.130,388.800 262.105,388.800 261.272 C 388.800 260.380,389.112 259.519,389.639 258.958 C 390.220 258.340,390.541 257.346,390.683 255.733 C 390.917 253.055,391.362 252.000,392.257 252.000 C 392.701 252.000,392.799 251.795,392.591 251.300 C 391.685 249.143,392.412 245.673,393.910 245.006 C 394.560 244.717,394.726 244.399,394.538 243.806 C 393.778 241.417,394.665 236.000,395.817 236.000 C 396.305 236.000,396.380 235.789,396.137 235.100 C 395.582 233.523,395.902 227.722,396.602 226.653 C 397.559 225.193,398.717 225.038,398.918 226.343 C 399.007 226.924,399.107 226.514,399.140 225.431 C 399.179 224.148,398.985 223.226,398.583 222.781 C 397.596 221.691,397.542 176.769,398.526 175.682 C 398.897 175.272,399.187 174.501,399.172 173.969 C 399.151 173.251,399.073 173.167,398.872 173.643 C 398.379 174.807,396.067 173.642,396.009 172.200 C 396.001 171.980,395.930 170.139,395.853 168.109 C 395.762 165.728,395.515 164.180,395.156 163.748 C 394.768 163.279,394.583 161.800,394.543 158.839 C 394.508 156.224,394.332 154.633,394.083 154.687 C 392.903 154.941,391.755 149.106,392.900 148.681 C 393.180 148.577,392.914 148.302,392.293 148.055 C 390.943 147.518,390.265 145.912,390.530 143.882 C 390.682 142.720,390.546 142.194,389.948 141.638 C 389.519 141.238,389.061 140.211,388.930 139.355 C 388.799 138.500,388.446 137.516,388.146 137.169 C 386.927 135.758,386.568 131.955,387.577 131.138 L 388.489 130.400 387.324 130.400 C 385.832 130.400,385.200 129.750,385.200 128.216 C 385.200 127.426,384.917 126.816,384.400 126.493 C 383.905 126.184,383.600 125.560,383.600 124.859 C 383.600 124.235,383.248 123.405,382.818 123.016 C 382.387 122.626,381.918 121.529,381.776 120.578 C 381.633 119.627,381.175 118.540,380.758 118.162 C 380.305 117.752,380.000 116.944,380.000 116.152 C 380.000 115.238,379.753 114.696,379.200 114.400 C 378.664 114.113,378.400 113.562,378.400 112.732 C 378.400 111.923,378.052 111.170,377.400 110.565 C 376.755 109.967,376.400 109.206,376.400 108.419 C 376.400 107.615,376.200 107.200,375.814 107.200 C 375.022 107.200,374.298 105.753,374.605 104.785 C 374.791 104.198,374.608 103.907,373.879 103.630 C 372.541 103.121,371.200 101.313,371.200 100.018 C 371.200 99.371,370.802 98.599,370.200 98.075 C 369.637 97.585,369.200 96.773,369.200 96.216 C 369.200 95.615,368.640 94.667,367.775 93.802 C 366.992 93.018,366.151 91.797,365.908 91.089 C 365.665 90.380,364.735 89.086,363.842 88.212 C 362.901 87.292,362.186 86.199,362.142 85.612 C 362.100 85.056,362.050 84.465,362.032 84.300 C 362.015 84.135,361.724 84.000,361.387 84.000 C 361.050 84.000,360.637 83.630,360.470 83.178 C 360.303 82.726,359.732 82.140,359.202 81.876 C 358.592 81.572,357.935 80.603,357.414 79.236 C 356.901 77.893,356.251 76.925,355.695 76.677 C 355.203 76.457,354.800 76.130,354.800 75.949 C 354.800 75.768,354.246 75.334,353.568 74.984 C 352.891 74.633,352.097 73.773,351.804 73.071 C 351.511 72.369,350.535 71.134,349.635 70.327 C 348.736 69.519,348.000 68.690,348.000 68.484 C 348.000 68.277,347.280 67.610,346.400 67.000 C 345.520 66.390,344.800 65.641,344.800 65.336 C 344.800 65.030,344.350 64.609,343.800 64.400 C 343.250 64.191,342.800 63.770,342.800 63.464 C 342.800 63.158,342.462 62.478,342.048 61.952 C 341.635 61.427,341.230 60.653,341.148 60.234 C 341.064 59.798,340.443 59.283,339.702 59.034 C 338.987 58.794,337.493 57.788,336.381 56.798 C 332.659 53.489,330.400 51.242,330.400 50.848 C 330.400 50.372,328.131 49.200,327.208 49.200 C 326.692 49.200,326.579 48.925,326.714 48.005 C 326.846 47.104,326.706 46.741,326.145 46.531 C 325.735 46.378,325.164 45.925,324.876 45.525 C 324.508 45.013,324.062 44.869,323.376 45.042 C 322.570 45.244,322.400 45.138,322.400 44.433 C 322.400 43.868,322.029 43.442,321.300 43.172 C 320.695 42.948,320.018 42.547,319.795 42.282 C 319.223 41.601,316.901 40.000,316.484 40.000 C 316.292 40.000,315.894 39.550,315.600 39.000 C 315.306 38.450,314.817 38.000,314.514 38.000 C 314.211 38.000,313.528 37.564,312.995 37.031 C 312.462 36.498,311.703 35.960,311.309 35.835 C 310.915 35.710,309.666 34.997,308.533 34.251 C 307.400 33.505,305.620 32.568,304.578 32.170 C 303.279 31.674,302.437 31.030,301.902 30.123 C 301.319 29.136,300.842 28.800,300.022 28.800 C 299.418 28.800,298.598 28.440,298.200 28.000 C 297.802 27.560,297.144 27.200,296.738 27.200 C 296.332 27.200,295.640 26.840,295.200 26.400 C 294.719 25.919,293.867 25.600,293.064 25.600 C 292.028 25.600,291.626 25.376,291.273 24.600 C 290.965 23.924,290.495 23.600,289.824 23.600 C 289.278 23.600,288.509 23.261,288.116 22.847 C 287.722 22.432,286.827 21.971,286.128 21.821 C 285.428 21.671,284.659 21.313,284.420 21.024 C 284.181 20.736,283.178 20.274,282.192 19.998 C 281.186 19.716,280.400 19.256,280.400 18.948 C 280.400 18.604,279.946 18.400,279.181 18.400 C 278.394 18.400,277.633 18.045,277.035 17.400 C 276.344 16.654,275.701 16.400,274.508 16.400 C 273.564 16.400,272.517 16.097,271.954 15.662 C 271.429 15.256,270.389 14.806,269.643 14.661 C 268.897 14.516,268.072 14.104,267.810 13.746 C 267.513 13.340,266.520 13.020,265.167 12.894 C 263.975 12.783,262.550 12.383,262.000 12.004 C 261.450 11.626,260.027 11.205,258.838 11.070 C 257.483 10.915,256.354 10.520,255.812 10.012 C 255.180 9.417,254.407 9.200,252.928 9.200 C 251.486 9.200,250.604 8.961,249.848 8.366 C 249.130 7.801,248.306 7.561,247.294 7.622 C 243.829 7.830,242.624 7.167,243.027 5.271 C 243.233 4.301,243.201 4.265,242.690 4.890 C 242.244 5.437,241.244 5.624,237.891 5.789 L 233.657 5.998 232.728 4.871 L 231.800 3.743 226.835 4.038 C 222.666 4.286,221.718 4.234,220.920 3.710 C 219.959 3.081,219.789 1.702,220.600 1.106 C 221.626 0.352,216.373 0.843,215.049 1.624 C 212.170 3.323,183.586 2.343,184.267 0.569 C 184.387 0.256,184.376 0.000,184.243 0.000 C 184.109 0.000,184.000 0.180,184.000 0.400 M162.000 8.047 C 162.000 8.241,161.640 8.400,161.200 8.400 C 160.760 8.400,160.400 8.147,160.400 7.837 C 160.400 7.472,160.680 7.348,161.200 7.484 C 161.640 7.599,162.000 7.852,162.000 8.047 M339.411 60.818 C 339.853 61.533,338.786 62.486,338.142 61.952 C 337.725 61.605,337.701 61.361,338.044 60.947 C 338.586 60.293,339.059 60.249,339.411 60.818 M67.321 66.595 C 67.365 66.812,67.085 67.050,66.700 67.124 C 66.262 67.208,66.000 67.012,66.000 66.600 C 66.000 65.904,67.182 65.899,67.321 66.595 M54.800 322.624 C 54.800 322.941,54.530 323.200,54.200 323.200 C 53.598 323.200,53.378 322.356,53.856 321.878 C 54.229 321.504,54.800 321.955,54.800 322.624 M83.330 345.463 C 83.692 345.825,82.795 346.844,82.355 346.572 C 81.803 346.231,81.937 345.200,82.533 345.200 C 82.827 345.200,83.185 345.318,83.330 345.463 M307.600 360.000 C 307.600 360.496,306.452 360.807,306.189 360.383 C 305.827 359.797,306.354 359.207,307.013 359.460 C 307.336 359.584,307.600 359.827,307.600 360.000 M305.242 363.718 C 304.728 364.232,304.207 363.835,304.588 363.220 C 304.735 362.982,305.039 362.900,305.262 363.039 C 305.536 363.207,305.529 363.431,305.242 363.718 " stroke="none" fill="#040404" fill-rule="evenodd"></path><path id="path1" d="M184.268 0.567 C 183.868 1.609,185.325 1.746,199.400 1.984 C 213.930 2.230,216.000 2.057,216.000 0.595 C 216.000 -0.279,184.603 -0.307,184.268 0.567 M169.119 1.067 C 168.744 1.168,168.327 1.600,168.192 2.026 C 167.969 2.729,167.546 2.800,163.573 2.800 C 159.496 2.800,159.200 2.853,159.200 3.584 C 159.200 4.295,158.871 4.380,155.700 4.484 C 152.330 4.596,152.195 4.636,152.062 5.578 C 151.769 7.657,156.364 8.488,158.568 6.754 C 159.481 6.036,160.287 5.889,163.913 5.784 C 167.727 5.674,168.259 5.568,168.885 4.795 C 169.536 3.990,169.971 3.924,175.025 3.864 C 180.751 3.797,181.853 3.413,181.507 1.608 C 181.392 1.009,171.009 0.555,169.119 1.067 M220.667 1.067 C 220.520 1.213,220.400 1.731,220.400 2.218 C 220.400 3.892,221.215 4.104,226.997 3.935 C 230.910 3.821,232.400 3.905,232.400 4.240 C 232.400 5.658,240.973 6.398,242.279 5.093 C 243.851 3.521,242.506 2.800,238.000 2.800 C 234.147 2.800,233.673 2.722,233.500 2.061 C 233.209 0.948,221.679 0.055,220.667 1.067 M243.200 5.503 C 243.200 7.398,247.092 8.544,249.132 7.250 C 250.978 6.080,249.466 4.602,246.300 4.483 L 243.200 4.366 243.200 5.503 M144.000 7.200 C 143.417 7.783,142.667 8.000,141.233 8.000 C 138.751 8.000,138.000 8.289,138.000 9.243 C 138.000 9.874,137.699 10.000,136.200 10.000 C 134.484 10.000,134.400 10.054,134.400 11.151 C 134.400 13.307,137.052 13.770,139.303 12.008 C 139.862 11.571,141.160 11.238,142.745 11.124 C 144.816 10.976,145.419 10.770,145.990 10.013 C 146.593 9.214,146.944 9.112,148.494 9.287 C 150.770 9.543,151.600 9.087,151.600 7.580 L 151.600 6.400 148.200 6.400 C 145.333 6.400,144.675 6.525,144.000 7.200 M250.000 7.386 C 250.000 8.662,251.046 9.200,253.525 9.200 C 255.065 9.200,255.624 9.380,256.051 10.012 C 256.444 10.592,257.227 10.896,258.800 11.079 C 260.010 11.219,261.540 11.663,262.200 12.066 C 262.912 12.500,264.166 12.798,265.282 12.799 C 266.755 12.800,267.381 13.017,268.164 13.800 C 268.734 14.370,269.625 14.800,270.238 14.800 C 270.828 14.800,271.526 15.094,271.789 15.452 C 272.086 15.859,273.083 16.182,274.433 16.311 C 275.919 16.453,276.764 16.750,277.123 17.259 C 277.416 17.675,278.129 18.000,278.751 18.000 C 279.419 18.000,280.186 18.380,280.690 18.960 C 281.150 19.488,282.070 20.040,282.735 20.186 C 283.400 20.332,284.159 20.710,284.421 21.026 C 284.683 21.342,285.417 21.600,286.052 21.600 C 286.784 21.600,287.523 21.965,288.075 22.600 C 288.618 23.225,289.368 23.600,290.072 23.600 C 290.692 23.600,291.200 23.767,291.200 23.971 C 291.200 24.788,292.533 25.653,293.441 25.425 C 294.108 25.258,294.486 25.413,294.789 25.979 C 295.022 26.414,295.821 26.880,296.579 27.022 C 297.332 27.164,298.257 27.621,298.636 28.040 C 299.014 28.458,299.836 28.800,300.462 28.800 C 301.088 28.800,301.600 28.966,301.600 29.169 C 301.600 30.017,303.678 31.916,304.866 32.153 C 305.571 32.294,306.429 32.657,306.774 32.959 C 307.118 33.262,308.478 34.079,309.796 34.776 C 311.114 35.472,312.330 36.289,312.499 36.591 C 312.668 36.893,313.426 37.345,314.184 37.595 C 314.942 37.845,315.669 38.388,315.801 38.803 C 316.030 39.525,318.647 41.420,321.464 42.903 C 322.199 43.290,322.800 43.875,322.800 44.203 C 322.800 44.531,323.141 44.800,323.558 44.800 C 324.493 44.800,326.800 46.895,326.800 47.744 C 326.800 48.086,327.610 48.841,328.600 49.421 C 329.590 50.001,330.400 50.661,330.400 50.888 C 330.400 51.115,331.341 52.133,332.490 53.150 C 333.640 54.168,335.062 55.495,335.651 56.100 C 336.239 56.705,336.891 57.200,337.098 57.200 C 337.306 57.200,337.793 57.550,338.180 57.978 C 338.567 58.405,339.269 58.810,339.740 58.878 C 340.490 58.985,341.496 60.332,342.669 62.800 C 343.148 63.808,346.963 67.600,347.498 67.600 C 347.774 67.600,348.000 67.790,348.000 68.023 C 348.000 68.255,348.900 69.359,350.000 70.477 C 351.100 71.594,352.000 72.826,352.000 73.215 C 352.000 73.603,352.659 74.344,353.465 74.860 C 354.270 75.377,355.343 76.067,355.848 76.393 C 356.359 76.722,356.994 77.755,357.278 78.719 C 357.840 80.622,358.906 82.000,359.816 82.000 C 360.137 82.000,360.400 82.266,360.400 82.591 C 360.400 82.916,360.850 83.476,361.400 83.837 C 362.031 84.250,362.400 84.866,362.400 85.506 C 362.400 86.189,362.987 87.075,364.200 88.220 C 365.190 89.156,366.000 90.272,366.000 90.702 C 366.000 91.434,366.872 92.669,368.784 94.642 C 369.233 95.105,369.600 95.954,369.600 96.528 C 369.600 97.162,369.914 97.740,370.400 98.000 C 370.891 98.263,371.200 98.838,371.200 99.489 C 371.200 100.879,372.757 103.157,373.909 103.456 C 374.660 103.650,374.803 103.932,374.726 105.071 C 374.633 106.446,375.196 107.181,376.350 107.194 C 376.745 107.198,376.834 107.532,376.664 108.382 C 376.475 109.325,376.626 109.720,377.414 110.339 C 378.083 110.866,378.400 111.514,378.400 112.354 C 378.400 113.160,378.680 113.768,379.200 114.093 C 379.681 114.393,380.000 115.026,380.000 115.678 C 380.000 116.276,380.450 117.428,381.000 118.238 C 381.575 119.085,382.000 120.282,382.000 121.052 C 382.000 121.960,382.258 122.555,382.800 122.893 C 383.287 123.197,383.600 123.826,383.600 124.499 C 383.600 125.170,383.980 125.936,384.566 126.445 C 385.216 127.011,385.477 127.587,385.364 128.212 C 385.155 129.360,386.137 130.400,387.429 130.400 C 388.785 130.400,388.943 126.067,387.600 125.716 C 387.118 125.590,386.798 125.167,386.795 124.653 C 386.784 123.006,386.313 122.000,385.553 122.000 C 384.916 122.000,384.800 121.692,384.800 120.000 C 384.800 118.538,384.586 117.786,384.006 117.206 C 383.569 116.769,383.096 115.689,382.955 114.806 C 382.761 113.595,382.514 113.200,381.949 113.200 C 381.339 113.200,381.200 112.896,381.200 111.563 C 381.200 110.294,381.030 109.881,380.446 109.728 C 379.927 109.592,379.611 109.028,379.434 107.925 C 379.253 106.792,378.945 106.258,378.389 106.113 C 377.771 105.951,377.600 105.563,377.600 104.316 C 377.600 103.062,377.431 102.681,376.800 102.516 C 376.360 102.401,376.000 101.981,376.000 101.584 C 376.000 101.187,375.550 100.327,375.000 99.673 C 374.450 99.019,374.000 98.179,374.000 97.805 C 374.000 97.431,373.640 97.031,373.200 96.916 C 372.594 96.757,372.400 96.370,372.400 95.316 C 372.400 94.259,372.207 93.875,371.596 93.715 C 371.153 93.599,370.684 93.076,370.552 92.552 C 370.406 91.969,370.020 91.600,369.557 91.600 C 368.938 91.600,368.800 91.302,368.800 89.963 C 368.800 88.671,368.634 88.282,368.013 88.119 C 367.581 88.006,367.118 87.573,366.986 87.157 C 366.854 86.741,366.398 86.400,365.973 86.400 C 365.335 86.400,365.200 86.114,365.200 84.763 C 365.200 83.488,365.031 83.081,364.437 82.926 C 364.017 82.816,363.581 82.369,363.467 81.933 C 363.353 81.497,362.886 81.043,362.430 80.924 C 361.961 80.801,361.600 80.379,361.600 79.953 C 361.600 79.539,361.266 78.866,360.858 78.458 C 360.450 78.050,359.996 77.240,359.850 76.658 C 359.675 75.959,359.316 75.600,358.792 75.600 C 358.267 75.600,358.000 75.331,358.000 74.800 C 358.000 74.283,357.733 74.000,357.247 74.000 C 356.821 74.000,356.399 73.639,356.276 73.170 C 356.157 72.714,355.686 72.243,355.230 72.124 C 354.761 72.001,354.400 71.579,354.400 71.153 C 354.400 70.667,354.117 70.400,353.600 70.400 C 353.076 70.400,352.800 70.133,352.800 69.627 C 352.800 69.200,352.434 68.738,351.984 68.595 C 351.492 68.439,351.072 67.858,350.927 67.136 C 350.795 66.476,350.353 65.727,349.944 65.472 C 349.535 65.217,349.200 64.686,349.200 64.294 C 349.200 63.901,348.751 63.409,348.200 63.200 C 347.650 62.991,347.200 62.545,347.200 62.210 C 347.200 61.867,346.850 61.600,346.400 61.600 C 345.855 61.600,345.600 61.333,345.600 60.763 C 345.600 60.266,345.280 59.841,344.813 59.719 C 344.381 59.606,343.918 59.173,343.786 58.757 C 343.654 58.341,343.198 58.000,342.773 58.000 C 342.255 58.000,342.000 57.724,342.000 57.163 C 342.000 56.675,341.681 56.242,341.237 56.126 C 340.817 56.016,340.384 55.583,340.274 55.163 C 340.158 54.719,339.725 54.400,339.237 54.400 C 338.676 54.400,338.400 54.145,338.400 53.627 C 338.400 53.188,338.029 52.736,337.541 52.581 C 337.069 52.431,336.055 51.682,335.289 50.915 C 334.522 50.149,333.386 49.344,332.764 49.127 C 332.142 48.911,331.523 48.388,331.389 47.967 C 331.256 47.545,330.798 47.200,330.373 47.200 C 329.867 47.200,329.600 46.924,329.600 46.400 C 329.600 45.882,329.333 45.600,328.843 45.600 C 328.370 45.600,327.993 45.226,327.836 44.600 C 327.674 43.954,327.304 43.600,326.792 43.600 C 326.267 43.600,326.000 43.331,326.000 42.800 C 326.000 42.303,325.733 42.000,325.295 42.000 C 324.907 42.000,324.412 41.595,324.195 41.100 C 323.905 40.438,323.403 40.167,322.300 40.076 C 321.125 39.979,320.800 39.784,320.800 39.176 C 320.800 38.683,320.526 38.400,320.047 38.400 C 319.621 38.400,319.199 38.039,319.076 37.570 C 318.957 37.114,318.503 36.647,318.067 36.533 C 317.631 36.419,317.184 35.983,317.074 35.563 C 316.919 34.969,316.512 34.800,315.237 34.800 C 313.898 34.800,313.600 34.662,313.600 34.043 C 313.600 33.181,312.855 32.800,311.167 32.800 C 310.366 32.800,310.000 32.600,310.000 32.163 C 310.000 31.812,309.640 31.431,309.200 31.316 C 308.760 31.201,308.400 30.868,308.400 30.577 C 308.400 29.814,307.664 29.468,306.163 29.524 C 305.096 29.565,304.829 29.409,304.726 28.687 C 304.646 28.122,304.274 27.754,303.700 27.672 C 303.122 27.590,302.800 27.268,302.800 26.772 C 302.800 26.142,302.515 26.000,301.243 26.000 C 299.917 26.000,299.650 25.852,299.436 25.000 C 299.222 24.149,298.954 24.000,297.639 24.000 C 296.430 24.000,296.048 23.826,295.884 23.200 C 295.719 22.567,295.338 22.400,294.065 22.400 C 292.703 22.400,292.436 22.262,292.328 21.504 C 292.254 20.984,291.864 20.546,291.400 20.461 C 290.960 20.380,290.278 19.973,289.884 19.557 C 289.372 19.015,288.613 18.800,287.212 18.800 C 285.488 18.800,285.240 18.693,285.128 17.900 C 285.022 17.152,284.713 16.979,283.300 16.877 C 281.926 16.778,281.600 16.605,281.600 15.977 C 281.600 15.323,281.316 15.200,279.800 15.200 C 278.309 15.200,278.000 15.072,278.000 14.452 C 278.000 13.694,276.443 13.215,273.947 13.204 C 273.232 13.201,272.826 12.943,272.684 12.400 C 272.518 11.764,272.138 11.600,270.837 11.600 C 269.733 11.600,268.939 11.339,268.400 10.800 C 267.837 10.237,267.067 10.000,265.800 10.000 C 264.810 10.000,264.000 9.833,264.000 9.629 C 264.000 8.651,262.648 8.000,260.618 8.000 C 258.830 8.000,258.460 7.873,258.284 7.200 C 257.921 5.812,250.000 5.989,250.000 7.386 M128.354 12.349 C 127.829 12.761,126.613 13.230,125.651 13.392 C 124.425 13.599,123.843 13.913,123.705 14.443 C 123.552 15.026,123.140 15.200,121.916 15.200 C 120.676 15.200,120.280 15.372,120.122 15.978 C 119.975 16.537,119.507 16.791,118.459 16.878 C 117.398 16.967,116.892 17.246,116.605 17.900 C 116.276 18.651,115.897 18.800,114.321 18.800 C 112.998 18.800,112.216 19.024,111.716 19.547 C 111.322 19.958,110.305 20.420,109.456 20.573 C 108.410 20.763,107.846 21.102,107.709 21.626 C 107.598 22.052,107.168 22.400,106.753 22.400 C 106.267 22.400,106.000 22.683,106.000 23.200 C 106.000 23.881,105.733 24.000,104.200 24.000 C 102.547 24.000,102.400 24.081,102.400 25.000 C 102.400 25.919,102.253 26.000,100.600 26.000 C 99.067 26.000,98.800 26.119,98.800 26.800 C 98.800 27.387,98.533 27.600,97.800 27.600 C 97.250 27.600,96.458 27.942,96.039 28.361 C 95.621 28.779,94.910 29.238,94.460 29.381 C 94.009 29.524,93.530 29.992,93.394 30.420 C 93.210 30.999,92.782 31.200,91.736 31.200 C 90.682 31.200,90.274 31.394,90.125 31.966 C 90.015 32.387,89.491 32.841,88.962 32.974 C 88.351 33.127,88.000 33.504,88.000 34.008 C 88.000 34.650,87.729 34.800,86.563 34.800 C 85.475 34.800,85.076 34.989,84.922 35.578 C 84.810 36.005,84.332 36.410,83.859 36.478 C 83.321 36.554,82.952 36.937,82.872 37.500 C 82.788 38.095,82.470 38.400,81.935 38.400 C 81.462 38.400,81.038 38.732,80.916 39.200 C 80.758 39.803,80.370 40.000,79.343 40.000 C 78.257 40.000,77.903 40.203,77.600 41.000 C 77.367 41.612,76.906 42.000,76.410 42.000 C 75.867 42.000,75.600 42.263,75.600 42.800 C 75.600 43.333,75.333 43.600,74.800 43.600 C 74.269 43.600,74.000 43.867,74.000 44.392 C 74.000 44.904,73.646 45.274,73.000 45.436 C 72.374 45.593,72.000 45.970,72.000 46.443 C 72.000 46.977,71.715 47.200,71.033 47.200 C 69.646 47.200,68.800 47.599,68.800 48.253 C 68.800 48.565,68.350 48.991,67.800 49.200 C 67.250 49.409,66.800 49.855,66.800 50.190 C 66.800 50.526,66.453 50.800,66.027 50.800 C 65.602 50.800,65.143 51.151,65.006 51.580 C 64.870 52.008,64.408 52.470,63.980 52.606 C 63.551 52.743,63.200 53.202,63.200 53.627 C 63.200 54.133,62.924 54.400,62.400 54.400 C 61.876 54.400,61.600 54.667,61.600 55.172 C 61.600 55.668,61.278 55.990,60.700 56.072 C 60.122 56.154,59.754 56.522,59.672 57.100 C 59.590 57.678,59.268 58.000,58.772 58.000 C 58.276 58.000,58.000 58.276,58.000 58.772 C 58.000 59.268,57.678 59.590,57.100 59.672 C 56.522 59.754,56.154 60.122,56.072 60.700 C 55.990 61.278,55.668 61.600,55.172 61.600 C 54.667 61.600,54.400 61.876,54.400 62.400 C 54.400 62.910,54.133 63.200,53.664 63.200 C 53.260 63.200,52.723 63.650,52.473 64.200 C 52.222 64.750,51.743 65.200,51.409 65.200 C 50.968 65.200,50.800 65.630,50.800 66.753 C 50.800 67.989,50.630 68.351,49.970 68.524 C 49.514 68.643,49.043 69.114,48.924 69.570 C 48.804 70.027,48.441 70.400,48.116 70.400 C 47.791 70.400,47.431 70.760,47.316 71.200 C 47.201 71.640,46.853 72.000,46.543 72.000 C 46.234 72.000,45.809 72.450,45.600 73.000 C 45.367 73.612,44.906 74.000,44.410 74.000 C 43.883 74.000,43.600 74.264,43.600 74.753 C 43.600 75.170,43.243 75.600,42.800 75.716 C 42.164 75.882,42.000 76.262,42.000 77.563 C 42.000 78.958,41.876 79.200,41.163 79.200 C 40.666 79.200,40.241 79.520,40.119 79.987 C 40.006 80.419,39.573 80.882,39.157 81.014 C 38.741 81.146,38.400 81.602,38.400 82.027 C 38.400 82.519,38.125 82.800,37.643 82.800 C 36.781 82.800,36.400 83.545,36.400 85.233 C 36.400 86.133,36.217 86.400,35.600 86.400 C 35.067 86.400,34.800 86.667,34.800 87.200 C 34.800 87.731,34.533 88.000,34.008 88.000 C 33.135 88.000,32.566 89.463,32.918 90.806 C 33.072 91.396,32.926 91.600,32.353 91.600 C 31.897 91.600,31.424 92.010,31.200 92.600 C 30.991 93.150,30.547 93.600,30.215 93.600 C 29.819 93.600,29.522 94.149,29.355 95.189 C 29.186 96.247,28.851 96.857,28.351 97.016 C 27.938 97.147,27.600 97.558,27.600 97.931 C 27.600 98.303,27.240 98.832,26.800 99.107 C 26.253 99.449,26.000 100.040,26.000 100.976 C 26.000 102.091,25.833 102.368,25.100 102.472 C 24.352 102.578,24.179 102.887,24.077 104.300 C 23.978 105.674,23.805 106.000,23.177 106.000 C 22.543 106.000,22.400 106.282,22.400 107.536 C 22.400 108.786,22.214 109.156,21.400 109.527 C 20.618 109.883,20.400 110.280,20.400 111.345 C 20.400 112.370,20.202 112.758,19.600 112.916 C 18.974 113.079,18.800 113.462,18.800 114.668 C 18.800 115.884,18.609 116.294,17.900 116.605 C 17.205 116.910,16.972 117.387,16.877 118.700 C 16.798 119.790,16.562 120.400,16.220 120.400 C 15.568 120.400,15.200 121.278,15.200 122.833 C 15.200 123.475,15.011 124.000,14.780 124.000 C 14.198 124.000,13.200 126.518,13.200 127.987 C 13.200 128.757,12.997 129.200,12.643 129.200 C 11.891 129.200,11.600 130.090,11.600 132.386 C 11.600 133.970,11.460 134.343,10.800 134.516 C 10.110 134.696,10.000 135.062,10.000 137.163 C 10.000 139.287,9.903 139.600,9.243 139.600 C 8.272 139.600,8.000 140.351,8.000 143.033 C 8.000 144.619,7.851 145.200,7.443 145.200 C 6.211 145.200,5.821 152.892,7.029 153.356 C 8.689 153.993,9.434 152.571,9.220 149.174 C 9.173 148.428,9.433 148.022,10.178 147.683 C 11.135 147.247,11.200 147.035,11.200 144.373 C 11.200 141.927,11.323 141.429,12.078 140.818 C 12.790 140.241,12.937 139.751,12.857 138.218 C 12.775 136.637,12.925 136.175,13.780 135.384 C 14.601 134.623,14.800 134.063,14.800 132.514 C 14.800 130.902,14.946 130.526,15.700 130.195 C 16.355 129.907,16.607 129.450,16.624 128.516 C 16.637 127.809,16.938 126.909,17.293 126.516 C 18.184 125.527,18.511 123.970,18.076 122.793 C 17.761 121.943,17.871 121.706,18.855 121.108 C 19.703 120.592,20.000 120.103,20.000 119.220 C 20.000 118.466,20.274 117.881,20.747 117.628 C 21.158 117.408,21.602 116.688,21.735 116.027 C 21.867 115.366,22.341 114.459,22.788 114.012 C 23.234 113.566,23.600 112.700,23.600 112.089 C 23.600 111.473,23.956 110.673,24.400 110.293 C 24.871 109.889,25.200 109.113,25.200 108.404 C 25.200 107.742,25.367 107.200,25.571 107.200 C 26.328 107.200,27.200 105.907,27.200 104.786 C 27.200 104.019,27.484 103.476,28.040 103.178 C 28.681 102.836,28.839 102.447,28.706 101.543 C 28.578 100.667,28.733 100.250,29.301 99.946 C 30.720 99.186,32.376 97.024,32.388 95.914 C 32.395 95.246,32.708 94.663,33.200 94.400 C 33.640 94.165,34.000 93.772,34.000 93.527 C 34.000 93.022,36.639 88.938,37.099 88.732 C 37.869 88.387,39.317 86.335,39.414 85.453 C 39.479 84.858,40.563 83.449,42.161 81.882 C 43.768 80.306,44.800 78.963,44.800 78.447 C 44.800 77.904,46.412 75.973,49.300 73.058 C 54.745 67.562,59.200 62.531,59.200 61.876 C 59.200 61.008,65.089 55.200,65.970 55.200 C 66.441 55.200,66.800 54.941,66.800 54.600 C 66.800 54.270,67.078 54.000,67.418 54.000 C 67.758 54.000,68.486 53.550,69.036 53.000 C 69.586 52.450,70.127 52.000,70.237 52.000 C 70.348 52.000,71.694 50.740,73.228 49.200 C 74.761 47.660,76.193 46.400,76.408 46.400 C 76.624 46.400,76.800 46.202,76.800 45.960 C 76.800 45.042,79.306 43.157,80.364 43.280 C 81.114 43.367,81.506 43.159,81.784 42.526 C 81.995 42.045,82.580 41.464,83.084 41.235 C 83.588 41.005,84.000 40.543,84.000 40.209 C 84.000 39.874,84.290 39.600,84.644 39.600 C 85.475 39.600,89.091 37.262,89.365 36.547 C 89.480 36.246,89.847 36.000,90.180 36.000 C 90.513 36.000,90.900 35.539,91.042 34.976 C 91.183 34.413,91.501 34.036,91.749 34.138 C 91.997 34.240,92.513 34.449,92.895 34.603 C 93.407 34.808,93.775 34.559,94.294 33.656 C 94.681 32.981,95.358 32.378,95.799 32.315 C 96.291 32.244,96.651 31.838,96.733 31.262 C 96.836 30.532,97.050 30.372,97.697 30.541 C 98.727 30.811,100.000 30.172,100.000 29.386 C 100.000 28.988,100.430 28.800,101.338 28.800 C 102.155 28.800,102.950 28.497,103.379 28.023 C 103.766 27.595,104.606 27.131,105.245 26.990 C 105.884 26.850,106.591 26.390,106.817 25.967 C 107.052 25.530,107.651 25.200,108.214 25.200 C 108.756 25.200,109.534 24.866,109.942 24.458 C 110.350 24.050,111.127 23.605,111.668 23.469 C 112.210 23.333,113.073 22.857,113.587 22.411 C 114.102 21.965,114.769 21.600,115.070 21.600 C 115.371 21.600,115.817 21.161,116.061 20.625 C 116.466 19.737,116.675 19.670,118.410 19.876 C 120.136 20.080,120.379 20.005,120.988 19.075 C 121.383 18.472,121.896 18.139,122.231 18.267 C 123.202 18.640,124.694 18.049,124.915 17.204 C 125.090 16.535,125.458 16.400,127.109 16.400 C 128.486 16.400,129.403 16.156,130.109 15.600 C 130.669 15.160,131.490 14.800,131.935 14.800 C 133.030 14.800,134.000 13.753,134.000 12.571 C 134.000 11.274,129.928 11.113,128.354 12.349 M338.217 61.172 C 337.944 61.614,338.575 62.092,338.944 61.722 C 339.325 61.342,339.254 60.800,338.824 60.800 C 338.617 60.800,338.344 60.968,338.217 61.172 M387.190 131.619 C 386.629 132.667,387.412 136.753,388.234 137.068 C 388.545 137.188,388.800 137.705,388.800 138.217 C 388.800 139.788,389.527 141.200,390.335 141.200 C 391.021 141.200,391.058 141.380,390.736 143.150 C 390.314 145.474,390.748 146.886,392.174 147.820 C 393.008 148.366,393.111 148.619,392.766 149.264 C 392.092 150.523,393.154 154.400,394.172 154.400 C 394.461 154.400,394.608 155.813,394.605 158.558 C 394.601 161.961,394.727 162.856,395.300 163.489 C 395.863 164.111,396.007 165.045,396.033 168.244 C 396.069 172.754,396.842 174.647,398.283 173.758 C 399.722 172.870,399.456 163.297,397.982 162.911 C 397.315 162.737,397.214 162.244,397.114 158.668 C 397.013 155.089,396.908 154.574,396.200 154.211 C 395.509 153.856,395.400 153.396,395.400 150.849 C 395.400 148.231,395.298 147.829,394.500 147.300 C 393.723 146.784,393.600 146.353,393.600 144.151 C 393.600 141.867,393.516 141.600,392.800 141.600 C 392.086 141.600,391.999 141.331,391.993 139.100 C 391.987 136.963,391.842 136.463,390.993 135.658 C 390.199 134.905,390.000 134.323,390.000 132.758 C 390.000 130.534,388.168 129.792,387.190 131.619 M4.667 154.267 C 4.520 154.413,4.400 156.012,4.400 157.820 C 4.400 160.770,4.318 161.128,3.600 161.316 C 2.864 161.508,2.800 161.862,2.800 165.736 C 2.800 169.500,2.721 169.971,2.051 170.184 C 0.989 170.521,0.809 172.152,0.804 181.500 C 0.802 186.630,0.653 189.600,0.400 189.600 C 0.143 189.600,0.000 193.667,0.000 201.000 C 0.000 208.333,0.143 212.400,0.400 212.400 C 0.652 212.400,0.800 215.075,0.800 219.626 C 0.800 226.842,1.051 228.400,2.214 228.400 C 2.698 228.400,2.800 229.280,2.800 233.437 C 2.800 238.107,2.857 238.490,3.585 238.680 C 4.277 238.861,4.384 239.296,4.485 242.343 L 4.600 245.800 6.000 245.800 L 7.400 245.800 7.524 243.400 C 7.701 239.989,7.335 238.444,6.230 237.941 C 5.403 237.564,5.339 237.360,5.636 236.059 C 6.191 233.629,5.612 227.735,4.741 226.946 C 4.067 226.337,4.000 225.557,4.000 218.367 C 4.000 210.150,4.046 210.406,2.296 208.961 C 1.895 208.630,1.744 206.736,1.681 201.276 L 1.599 194.029 2.799 192.662 L 4.000 191.294 4.000 183.173 C 4.000 175.513,4.047 175.002,4.827 174.171 C 5.569 173.381,5.662 172.741,5.727 167.964 C 5.795 163.026,5.865 162.573,6.700 161.737 C 7.606 160.830,8.020 156.360,7.357 154.633 C 7.116 154.004,5.191 153.742,4.667 154.267 M398.401 175.998 C 397.825 177.075,397.843 221.360,398.420 222.438 C 399.924 225.248,400.000 224.129,400.000 199.200 C 400.000 174.215,399.926 173.148,398.401 175.998 M396.944 226.491 C 396.206 227.685,395.705 232.036,396.095 233.864 C 396.463 235.589,396.422 235.780,395.546 236.441 C 394.663 237.107,394.600 237.418,394.600 241.125 C 394.600 244.677,394.518 245.134,393.819 245.448 C 392.863 245.879,392.254 248.078,392.526 250.118 C 392.692 251.360,392.548 251.816,391.731 252.633 C 390.840 253.524,390.747 253.902,390.867 256.165 C 390.958 257.895,390.860 258.646,390.559 258.530 C 389.875 258.266,388.800 260.221,388.800 261.732 C 388.800 262.486,388.444 263.545,388.000 264.109 C 386.491 266.027,387.016 269.200,388.843 269.200 C 389.948 269.200,390.000 269.119,390.000 267.400 C 390.000 266.086,390.158 265.600,390.586 265.600 C 391.552 265.600,392.000 264.214,392.000 261.226 C 392.000 258.667,392.075 258.400,392.800 258.400 C 393.517 258.400,393.600 258.133,393.600 255.827 C 393.600 253.660,393.719 253.216,394.352 253.015 C 395.212 252.742,395.600 251.257,395.600 248.239 C 395.600 246.673,395.792 246.013,396.400 245.493 C 397.091 244.901,397.200 244.313,397.200 241.168 C 397.200 237.890,397.288 237.457,398.088 236.809 C 399.140 235.957,399.697 228.476,398.829 226.855 C 398.323 225.909,397.412 225.733,396.944 226.491 M6.400 250.000 C 6.400 253.037,6.522 253.722,7.180 254.380 C 7.754 254.954,7.992 255.828,8.080 257.680 C 8.188 259.946,8.291 260.213,9.100 260.328 C 9.920 260.444,10.000 260.671,10.000 262.865 C 10.000 264.938,10.112 265.304,10.800 265.484 C 11.449 265.654,11.600 266.030,11.600 267.472 C 11.600 269.236,11.611 269.250,12.893 269.125 C 14.997 268.921,15.578 265.033,13.582 264.511 C 12.935 264.342,12.799 263.951,12.794 262.253 C 12.787 260.075,12.548 259.432,11.633 259.138 C 11.203 258.999,11.089 258.274,11.159 256.118 C 11.244 253.489,11.171 253.206,10.169 252.276 C 9.207 251.384,9.116 251.083,9.356 249.582 C 9.670 247.623,8.894 246.400,7.338 246.400 C 6.423 246.400,6.400 246.490,6.400 250.000 M13.443 270.233 C 12.739 272.066,13.569 274.800,14.829 274.800 C 15.033 274.800,15.200 275.496,15.200 276.346 C 15.200 277.251,15.511 278.288,15.949 278.846 C 16.361 279.371,16.824 280.547,16.977 281.461 C 17.173 282.622,17.489 283.182,18.029 283.323 C 18.629 283.480,18.800 283.881,18.800 285.136 C 18.800 286.395,18.975 286.801,19.600 287.000 C 20.197 287.189,20.400 287.605,20.400 288.636 C 20.400 289.721,20.614 290.115,21.400 290.473 C 22.214 290.844,22.400 291.214,22.400 292.464 C 22.400 293.733,22.539 294.000,23.200 294.000 C 23.817 294.000,24.000 294.267,24.000 295.167 C 24.000 296.855,24.381 297.600,25.243 297.600 C 25.784 297.600,26.000 297.886,26.000 298.600 C 26.000 299.150,26.360 299.960,26.800 300.400 C 27.240 300.840,27.600 301.577,27.600 302.037 C 27.600 302.522,27.918 302.958,28.354 303.072 C 28.863 303.205,29.188 303.764,29.352 304.787 C 29.514 305.806,29.841 306.370,30.343 306.501 C 30.826 306.627,31.188 307.212,31.364 308.148 C 31.514 308.947,31.817 309.600,32.039 309.600 C 32.260 309.600,32.630 310.140,32.860 310.800 C 33.127 311.566,33.553 312.000,34.039 312.000 C 34.533 312.000,34.800 312.280,34.800 312.800 C 34.800 313.325,35.067 313.600,35.577 313.600 C 36.205 313.600,36.378 313.926,36.477 315.300 C 36.579 316.713,36.752 317.022,37.500 317.128 C 38.066 317.208,38.400 317.533,38.400 318.001 C 38.400 318.411,38.760 318.860,39.200 319.000 C 39.797 319.189,40.000 319.605,40.000 320.637 C 40.000 321.744,40.199 322.096,41.000 322.400 C 41.612 322.633,42.000 323.094,42.000 323.590 C 42.000 324.133,42.263 324.400,42.800 324.400 C 43.333 324.400,43.600 324.667,43.600 325.200 C 43.600 325.737,43.867 326.000,44.410 326.000 C 44.906 326.000,45.367 326.388,45.600 327.000 C 45.809 327.550,46.235 328.000,46.546 328.000 C 46.868 328.000,47.217 328.564,47.357 329.313 C 47.493 330.035,47.963 330.933,48.402 331.309 C 48.841 331.685,49.200 332.264,49.200 332.596 C 49.200 332.933,49.553 333.200,50.000 333.200 C 50.524 333.200,50.800 333.467,50.800 333.973 C 50.800 334.398,51.141 334.854,51.557 334.986 C 51.973 335.118,52.406 335.581,52.519 336.013 C 52.641 336.480,53.066 336.800,53.563 336.800 C 54.133 336.800,54.400 337.055,54.400 337.600 C 54.400 338.050,54.667 338.400,55.010 338.400 C 55.345 338.400,55.791 338.850,56.000 339.400 C 56.233 340.012,56.694 340.400,57.190 340.400 C 57.733 340.400,58.000 340.663,58.000 341.200 C 58.000 341.733,58.267 342.000,58.800 342.000 C 59.337 342.000,59.600 342.267,59.600 342.810 C 59.600 343.306,59.988 343.767,60.600 344.000 C 61.150 344.209,61.600 344.655,61.600 344.990 C 61.600 345.333,61.950 345.600,62.400 345.600 C 62.945 345.600,63.200 345.867,63.200 346.437 C 63.200 346.934,63.520 347.359,63.987 347.481 C 64.419 347.594,64.882 348.027,65.014 348.443 C 65.146 348.859,65.602 349.200,66.027 349.200 C 66.468 349.200,66.800 349.474,66.800 349.837 C 66.800 350.188,67.138 350.563,67.551 350.671 C 67.964 350.779,68.501 351.303,68.743 351.834 C 68.985 352.365,69.436 352.800,69.745 352.800 C 70.054 352.800,70.394 353.133,70.500 353.540 C 70.633 354.048,71.215 354.364,72.347 354.545 C 73.641 354.752,74.000 354.982,74.000 355.605 C 74.000 356.133,74.268 356.400,74.800 356.400 C 75.333 356.400,75.600 356.667,75.600 357.200 C 75.600 357.731,75.867 358.000,76.392 358.000 C 76.904 358.000,77.274 358.354,77.436 359.000 C 77.577 359.562,77.976 360.000,78.347 360.000 C 78.710 360.000,79.232 360.360,79.507 360.800 C 79.852 361.352,80.440 361.600,81.403 361.600 C 82.554 361.600,82.800 361.747,82.800 362.437 C 82.800 362.934,83.120 363.359,83.587 363.481 C 84.019 363.594,84.482 364.027,84.614 364.443 C 84.796 365.017,85.235 365.200,86.427 365.200 C 87.728 365.200,88.000 365.337,88.000 365.992 C 88.000 366.504,88.354 366.874,89.000 367.036 C 89.626 367.193,90.000 367.570,90.000 368.043 C 90.000 368.651,90.295 368.800,91.505 368.800 C 92.681 368.800,93.097 368.996,93.405 369.698 C 93.622 370.191,94.131 370.658,94.536 370.734 C 94.941 370.810,95.616 371.216,96.036 371.636 C 96.456 372.056,97.250 372.400,97.800 372.400 C 98.533 372.400,98.800 372.613,98.800 373.200 C 98.800 373.881,99.067 374.000,100.600 374.000 C 102.253 374.000,102.400 374.081,102.400 375.000 C 102.400 375.919,102.547 376.000,104.200 376.000 C 105.733 376.000,106.000 376.119,106.000 376.800 C 106.000 377.376,106.267 377.600,106.953 377.600 C 107.559 377.600,107.980 377.882,108.109 378.374 C 108.241 378.878,108.802 379.239,109.719 379.411 C 110.627 379.582,111.197 379.946,111.326 380.438 C 111.494 381.082,111.902 381.200,113.963 381.200 C 116.126 381.200,116.400 381.289,116.400 381.992 C 116.400 382.516,116.759 382.875,117.458 383.050 C 118.040 383.196,118.850 383.650,119.258 384.058 C 119.761 384.561,120.580 384.800,121.800 384.800 C 123.314 384.800,123.600 384.923,123.600 385.575 C 123.600 386.407,126.516 387.148,127.821 386.647 C 129.220 386.110,128.378 383.815,126.731 383.678 C 125.682 383.590,125.073 383.266,124.597 382.539 C 123.915 381.498,122.179 381.352,120.300 382.178 C 119.765 382.413,119.600 382.298,119.600 381.692 C 119.600 380.639,118.663 379.908,117.522 380.069 C 116.914 380.155,116.460 379.927,116.191 379.400 C 115.933 378.895,115.290 378.553,114.447 378.471 C 113.635 378.393,112.776 377.952,112.254 377.344 C 111.517 376.488,111.243 376.403,110.329 376.751 C 109.357 377.120,109.227 377.052,108.852 375.978 C 108.626 375.330,108.190 374.800,107.882 374.800 C 107.574 374.800,106.902 374.435,106.387 373.989 C 105.873 373.543,105.031 373.072,104.516 372.943 C 104.000 372.814,103.397 372.369,103.175 371.954 C 102.928 371.492,102.340 371.200,101.658 371.200 C 100.971 371.200,100.214 370.820,99.681 370.207 C 98.968 369.387,98.646 369.278,97.840 369.585 C 96.976 369.913,96.816 369.820,96.452 368.778 C 96.226 368.130,95.879 367.600,95.679 367.600 C 95.480 367.600,94.819 367.139,94.211 366.575 C 93.596 366.006,92.843 365.651,92.515 365.777 C 92.148 365.918,91.281 365.323,90.222 364.202 C 89.168 363.086,88.171 362.400,87.604 362.400 C 87.079 362.400,85.988 361.722,85.044 360.808 C 81.906 357.769,80.678 356.800,79.966 356.800 C 79.572 356.800,77.998 355.585,76.467 354.100 C 72.052 349.816,70.082 348.000,69.851 348.000 C 68.915 348.000,64.130 343.823,61.400 340.623 C 60.740 339.850,59.975 339.213,59.700 339.208 C 59.425 339.204,59.200 339.060,59.200 338.890 C 59.200 338.719,58.015 337.347,56.566 335.840 C 54.644 333.841,53.988 332.889,54.138 332.316 C 54.286 331.748,54.019 331.346,53.174 330.865 C 52.531 330.499,52.004 330.078,52.003 329.929 C 52.001 329.779,50.830 328.482,49.400 327.045 C 46.756 324.388,46.424 323.736,47.280 322.880 C 47.653 322.507,47.609 322.400,47.080 322.400 C 46.706 322.400,46.400 322.580,46.400 322.800 C 46.400 323.521,45.130 323.218,44.929 322.449 C 44.821 322.036,44.308 321.504,43.789 321.268 C 43.076 320.943,42.890 320.598,43.025 319.850 C 43.196 318.907,42.367 317.600,41.598 317.600 C 41.409 317.600,41.140 317.240,41.000 316.800 C 40.860 316.360,40.488 316.000,40.173 316.000 C 39.804 316.000,39.600 315.576,39.600 314.809 C 39.600 313.980,39.296 313.419,38.600 312.963 C 38.050 312.603,37.600 312.065,37.600 311.768 C 37.600 311.471,37.240 311.035,36.800 310.800 C 36.360 310.565,36.000 310.104,36.000 309.777 C 36.000 309.450,35.550 308.978,35.000 308.727 C 34.216 308.370,34.000 307.975,34.000 306.898 C 34.000 305.862,33.804 305.474,33.200 305.316 C 32.637 305.169,32.400 304.770,32.400 303.969 C 32.400 303.343,32.071 302.509,31.669 302.116 C 31.268 301.722,30.706 300.815,30.421 300.100 C 30.136 299.385,29.740 298.800,29.542 298.800 C 29.343 298.800,29.002 298.333,28.785 297.761 C 28.568 297.190,28.028 296.628,27.586 296.512 C 26.954 296.347,26.801 296.011,26.873 294.946 C 26.941 293.936,26.739 293.433,26.081 292.971 C 25.364 292.470,25.277 292.204,25.617 291.568 C 26.131 290.608,25.834 290.069,24.513 289.567 C 23.650 289.239,23.539 289.007,23.746 287.970 C 23.955 286.923,23.825 286.663,22.797 286.078 C 21.943 285.592,21.604 285.097,21.603 284.333 C 21.599 282.855,21.216 282.000,20.557 282.000 C 20.178 282.000,20.000 281.512,20.000 280.475 C 20.000 279.504,19.710 278.639,19.200 278.092 C 18.685 277.539,18.400 276.681,18.400 275.681 C 18.400 274.413,18.217 274.045,17.400 273.673 C 16.612 273.314,16.400 272.922,16.400 271.823 C 16.400 269.919,14.048 268.654,13.443 270.233 M386.051 270.138 C 385.806 270.434,385.491 271.244,385.352 271.938 C 385.214 272.632,384.880 273.200,384.612 273.200 C 383.613 273.200,382.704 274.673,383.168 275.540 C 384.011 277.115,383.719 278.000,382.357 278.000 C 381.326 278.000,381.165 278.119,381.414 278.700 C 382.200 280.538,382.098 281.617,381.047 282.592 C 380.471 283.125,380.000 283.980,380.000 284.492 C 380.000 285.004,379.640 285.730,379.200 286.107 C 378.760 286.484,378.400 287.211,378.400 287.724 C 378.400 288.236,377.950 289.047,377.400 289.525 C 376.753 290.088,376.400 290.814,376.400 291.583 C 376.400 292.362,376.124 292.919,375.600 293.200 C 375.087 293.474,374.800 294.038,374.800 294.768 C 374.800 295.543,374.479 296.118,373.800 296.563 C 373.113 297.014,372.800 297.582,372.800 298.382 C 372.800 299.195,372.559 299.623,372.000 299.800 C 371.560 299.940,371.200 300.336,371.200 300.681 C 371.200 301.026,370.739 301.736,370.174 302.259 C 369.496 302.888,369.229 303.460,369.385 303.952 C 369.548 304.466,369.309 304.899,368.607 305.358 C 368.050 305.723,367.047 306.993,366.377 308.179 C 365.708 309.365,364.899 310.552,364.580 310.816 C 364.261 311.081,364.000 311.540,364.000 311.835 C 364.000 312.130,363.664 312.552,363.253 312.772 C 362.842 312.992,362.397 313.716,362.264 314.382 C 362.123 315.086,361.263 316.320,360.211 317.328 C 359.035 318.454,358.400 319.404,358.400 320.035 C 358.400 320.574,358.044 321.230,357.600 321.507 C 357.160 321.782,356.800 322.189,356.800 322.412 C 356.800 322.860,352.795 326.800,352.339 326.800 C 352.182 326.800,351.943 327.151,351.806 327.580 C 351.670 328.008,351.208 328.470,350.780 328.606 C 350.351 328.743,350.000 329.091,350.000 329.381 C 350.000 329.671,349.550 330.203,349.000 330.563 C 348.450 330.924,348.000 331.584,348.000 332.031 C 348.000 332.949,346.035 335.600,345.354 335.600 C 344.588 335.600,342.800 337.225,342.791 337.929 C 342.787 338.298,342.133 339.140,341.339 339.800 C 340.544 340.460,339.526 341.405,339.075 341.900 C 338.624 342.395,338.030 342.800,337.754 342.800 C 337.478 342.800,336.765 343.475,336.171 344.300 C 335.109 345.774,332.361 348.000,331.604 348.000 C 331.392 348.000,330.924 348.450,330.563 349.000 C 330.203 349.550,329.688 350.000,329.418 350.000 C 329.149 350.000,328.723 350.450,328.473 351.000 C 328.222 351.550,327.807 352.000,327.550 352.000 C 327.294 352.000,326.069 353.067,324.828 354.371 C 323.587 355.675,322.078 356.865,321.475 357.017 C 320.872 357.168,320.197 357.631,319.975 358.046 C 319.753 358.461,319.303 358.800,318.973 358.800 C 318.644 358.800,318.266 359.084,318.133 359.431 C 318.000 359.777,317.479 360.218,316.976 360.409 C 316.464 360.604,316.004 361.163,315.931 361.678 C 315.823 362.436,315.595 362.576,314.647 362.464 C 313.875 362.374,313.215 362.608,312.647 363.175 C 310.574 365.247,309.492 366.000,308.593 366.000 C 308.028 366.000,307.445 366.342,307.187 366.825 C 306.889 367.381,306.430 367.609,305.781 367.525 C 305.192 367.449,304.463 367.747,303.908 368.292 C 301.884 370.281,300.648 371.200,300.000 371.200 C 299.624 371.200,298.831 371.650,298.238 372.200 C 297.644 372.750,296.814 373.200,296.393 373.200 C 295.973 373.200,295.435 373.560,295.200 374.000 C 294.900 374.561,294.362 374.800,293.400 374.800 C 292.448 374.800,291.900 375.039,291.609 375.583 C 291.375 376.020,290.572 376.482,289.790 376.628 C 289.019 376.773,288.242 377.154,288.062 377.475 C 287.882 377.796,287.300 378.275,286.768 378.539 C 284.952 379.439,285.221 381.200,287.173 381.200 C 288.533 381.200,288.800 381.069,288.800 380.400 C 288.800 379.732,289.067 379.600,290.418 379.600 C 291.611 379.600,292.299 379.337,293.036 378.600 C 293.586 378.050,294.405 377.600,294.856 377.600 C 295.338 377.600,295.761 377.272,295.884 376.800 C 296.048 376.174,296.430 376.000,297.639 376.000 C 298.954 376.000,299.222 375.851,299.436 375.000 C 299.649 374.151,299.918 374.000,301.216 374.000 C 302.395 374.000,302.804 373.816,303.000 373.200 C 303.140 372.760,303.484 372.400,303.765 372.400 C 304.046 372.400,304.586 372.058,304.964 371.640 C 305.343 371.221,306.271 370.763,307.026 370.621 C 308.035 370.432,308.400 370.156,308.400 369.582 C 308.400 368.957,308.677 368.800,309.777 368.800 C 310.650 368.800,311.346 368.534,311.677 368.074 C 311.965 367.674,312.515 367.230,312.900 367.086 C 313.285 366.943,313.600 366.459,313.600 366.013 C 313.600 365.351,313.859 365.200,314.997 365.200 C 315.960 365.200,316.548 364.952,316.893 364.400 C 317.168 363.960,317.706 363.600,318.089 363.600 C 318.498 363.600,318.888 363.187,319.036 362.600 C 319.243 361.773,319.527 361.600,320.681 361.600 C 321.725 361.600,322.126 361.405,322.278 360.822 C 322.390 360.395,322.868 359.990,323.341 359.922 C 323.879 359.846,324.248 359.463,324.328 358.900 C 324.410 358.322,324.732 358.000,325.228 358.000 C 325.733 358.000,326.000 357.724,326.000 357.200 C 326.000 356.663,326.267 356.400,326.810 356.400 C 327.306 356.400,327.767 356.012,328.000 355.400 C 328.209 354.850,328.655 354.400,328.990 354.400 C 329.333 354.400,329.600 354.050,329.600 353.600 C 329.600 352.933,329.867 352.800,331.210 352.800 C 332.559 352.800,332.881 352.638,333.200 351.800 C 333.409 351.250,333.855 350.800,334.190 350.800 C 334.526 350.800,334.800 350.526,334.800 350.190 C 334.800 349.855,335.250 349.409,335.800 349.200 C 336.350 348.991,336.800 348.545,336.800 348.210 C 336.800 347.874,337.074 347.600,337.409 347.600 C 337.743 347.600,338.222 347.150,338.473 346.600 C 338.723 346.050,339.260 345.600,339.664 345.600 C 340.133 345.600,340.400 345.310,340.400 344.800 C 340.400 344.276,340.667 344.000,341.172 344.000 C 341.668 344.000,341.990 343.678,342.072 343.100 C 342.154 342.522,342.522 342.154,343.100 342.072 C 343.678 341.990,344.000 341.668,344.000 341.172 C 344.000 340.667,344.276 340.400,344.800 340.400 C 345.310 340.400,345.600 340.133,345.600 339.664 C 345.600 339.260,346.050 338.723,346.600 338.473 C 347.150 338.222,347.600 337.743,347.600 337.409 C 347.600 337.074,347.887 336.800,348.237 336.800 C 348.588 336.800,348.967 336.446,349.081 336.013 C 349.194 335.581,349.618 335.121,350.023 334.993 C 350.428 334.864,350.864 334.428,350.993 334.023 C 351.121 333.618,351.581 333.194,352.013 333.081 C 352.461 332.964,352.800 332.534,352.800 332.084 C 352.800 331.630,353.140 331.204,353.600 331.084 C 354.110 330.951,354.402 330.535,354.406 329.937 C 354.414 328.798,354.775 328.225,355.700 327.883 C 356.085 327.741,356.400 327.259,356.400 326.813 C 356.400 326.267,356.663 326.000,357.200 326.000 C 357.733 326.000,358.000 325.733,358.000 325.200 C 358.000 324.663,358.267 324.400,358.810 324.400 C 359.306 324.400,359.767 324.012,360.000 323.400 C 360.209 322.850,360.655 322.400,360.990 322.400 C 361.400 322.400,361.600 322.010,361.600 321.209 C 361.600 320.380,361.904 319.819,362.600 319.363 C 363.150 319.003,363.600 318.369,363.600 317.954 C 363.600 317.467,363.883 317.200,364.400 317.200 C 364.945 317.200,365.200 316.933,365.200 316.363 C 365.200 315.872,365.519 315.442,365.971 315.323 C 366.496 315.186,366.825 314.634,367.000 313.600 C 367.175 312.566,367.504 312.014,368.029 311.877 C 368.577 311.733,368.800 311.324,368.800 310.460 C 368.800 309.736,369.098 309.034,369.537 308.723 C 369.942 308.435,370.488 307.795,370.751 307.300 C 371.013 306.805,371.492 306.400,371.814 306.400 C 372.172 306.400,372.400 306.012,372.400 305.400 C 372.400 304.812,372.630 304.400,372.957 304.400 C 373.595 304.400,374.000 303.551,374.000 302.214 C 374.000 301.634,374.292 301.217,374.789 301.087 C 375.349 300.941,375.654 300.405,375.840 299.240 C 376.039 297.997,376.284 297.600,376.851 297.600 C 377.470 297.600,377.600 297.293,377.600 295.828 C 377.600 294.295,377.721 294.038,378.500 293.928 C 379.134 293.838,379.436 293.487,379.523 292.742 C 379.590 292.159,379.995 291.367,380.423 290.980 C 380.919 290.530,381.200 289.754,381.200 288.833 C 381.200 287.720,381.406 287.299,382.100 286.995 C 382.758 286.706,383.033 286.202,383.123 285.120 C 383.210 284.072,383.473 283.567,384.023 283.393 C 384.634 283.199,384.800 282.778,384.800 281.420 C 384.800 280.048,384.959 279.652,385.575 279.491 C 386.191 279.329,386.406 278.794,386.623 276.878 C 386.836 274.992,387.059 274.426,387.648 274.272 C 388.933 273.936,388.748 269.600,387.449 269.600 C 386.926 269.600,386.297 269.842,386.051 270.138 M280.678 381.013 C 280.040 381.574,279.058 382.000,278.405 382.000 C 277.592 382.000,277.177 382.243,276.991 382.828 C 276.765 383.542,276.451 383.641,274.703 383.548 C 272.930 383.454,272.636 383.550,272.351 384.320 C 272.093 385.019,271.707 385.200,270.475 385.200 C 268.947 385.200,267.600 386.100,267.600 387.121 C 267.600 387.541,266.089 387.467,264.478 386.969 C 264.191 386.881,263.508 387.256,262.961 387.802 C 262.235 388.529,261.351 388.868,259.683 389.062 C 258.141 389.241,257.230 389.566,256.877 390.064 C 256.462 390.648,255.825 390.800,253.787 390.800 C 251.497 390.800,251.148 390.907,250.571 391.787 C 249.960 392.721,249.765 392.765,247.011 392.588 C 243.812 392.383,243.028 392.779,243.269 394.478 C 243.503 396.123,250.876 396.052,251.400 394.399 C 251.622 393.702,252.006 393.600,254.427 393.600 C 256.642 393.600,257.357 393.443,257.979 392.821 C 258.534 392.266,259.429 392.006,261.079 391.921 C 263.041 391.819,263.461 391.661,263.795 390.900 C 264.106 390.191,264.516 390.000,265.732 390.000 C 266.927 390.000,267.321 389.823,267.479 389.218 C 267.650 388.567,268.095 388.416,270.142 388.318 C 272.376 388.211,272.612 388.114,272.733 387.262 C 272.837 386.528,273.049 386.372,273.708 386.544 C 275.352 386.974,278.000 386.358,278.000 385.546 C 278.000 384.929,278.310 384.800,279.800 384.800 C 281.333 384.800,281.600 384.681,281.600 384.000 C 281.600 383.383,281.867 383.200,282.767 383.200 C 284.612 383.200,285.200 382.813,285.200 381.600 C 285.200 379.724,282.536 379.378,280.678 381.013 M129.407 385.850 C 128.186 387.071,128.788 388.185,130.744 388.325 C 132.071 388.420,132.537 388.636,132.691 389.225 C 132.864 389.888,133.257 390.000,135.419 390.000 C 137.733 390.000,137.955 390.075,138.072 390.900 C 138.187 391.708,138.455 391.812,140.696 391.919 C 142.688 392.014,143.277 392.196,143.610 392.819 C 143.980 393.509,144.468 393.600,147.814 393.600 L 151.600 393.600 151.600 392.424 C 151.600 390.885,151.241 390.711,148.071 390.711 C 145.779 390.711,145.286 390.578,144.524 389.756 C 143.804 388.979,143.240 388.800,141.515 388.800 C 139.787 388.800,139.294 388.643,138.864 387.953 C 138.404 387.218,138.050 387.130,136.167 387.286 C 134.975 387.385,134.000 387.316,134.000 387.133 C 134.000 385.572,130.628 384.629,129.407 385.850 M152.662 392.891 C 150.727 394.343,151.923 395.391,155.657 395.515 C 158.704 395.616,159.139 395.723,159.320 396.415 C 159.508 397.135,159.889 397.200,163.916 397.200 C 167.911 397.200,168.325 397.269,168.508 397.969 C 168.940 399.623,181.362 399.752,181.445 398.104 C 181.470 397.610,181.217 396.980,180.884 396.704 C 180.032 395.996,170.995 395.740,170.199 396.401 C 169.718 396.800,169.546 396.709,169.237 395.898 C 168.732 394.569,168.136 394.400,163.951 394.400 C 160.893 394.400,160.194 394.272,159.185 393.526 C 157.709 392.434,153.780 392.052,152.662 392.891 M240.387 394.017 C 240.064 394.221,238.792 394.391,237.560 394.394 C 235.254 394.400,232.800 395.026,232.800 395.607 C 232.800 395.788,230.468 395.996,227.619 396.068 C 222.220 396.206,221.696 396.372,221.511 398.009 L 221.400 399.000 225.600 399.124 C 231.138 399.288,233.889 398.939,234.721 397.967 C 235.275 397.321,235.922 397.200,238.842 397.200 C 242.327 397.200,243.545 396.430,242.440 394.926 C 241.790 394.043,240.940 393.667,240.387 394.017 M196.400 397.973 C 185.475 398.198,184.000 398.373,184.000 399.443 C 184.000 399.910,186.707 400.000,200.800 400.000 C 214.312 400.000,217.600 399.898,217.600 399.480 C 217.600 397.995,212.592 397.639,196.400 397.973 " stroke="none" fill="#0c0c0c" fill-rule="evenodd"></path><path id="path2" d="M191.700 2.291 C 192.525 2.378,193.875 2.378,194.700 2.291 C 195.525 2.205,194.850 2.134,193.200 2.134 C 191.550 2.134,190.875 2.205,191.700 2.291 M199.513 2.295 C 200.676 2.376,202.476 2.376,203.513 2.293 C 204.551 2.211,203.600 2.145,201.400 2.146 C 199.200 2.147,198.351 2.214,199.513 2.295 M207.091 2.289 C 207.801 2.377,209.061 2.379,209.891 2.292 C 210.721 2.205,210.140 2.133,208.600 2.131 C 207.060 2.129,206.381 2.200,207.091 2.289 M222.100 4.276 C 222.485 4.376,223.115 4.376,223.500 4.276 C 223.885 4.175,223.570 4.093,222.800 4.093 C 222.030 4.093,221.715 4.175,222.100 4.276 M249.400 8.000 C 249.798 8.440,250.169 8.800,250.225 8.800 C 250.280 8.800,250.231 8.440,250.116 8.000 C 250.001 7.560,249.630 7.200,249.291 7.200 C 248.774 7.200,248.791 7.327,249.400 8.000 M130.576 15.240 C 130.426 15.481,129.741 15.924,129.052 16.224 C 128.363 16.524,128.080 16.776,128.422 16.784 C 128.765 16.793,129.655 16.350,130.400 15.800 C 131.145 15.250,131.551 14.800,131.301 14.800 C 131.052 14.800,130.725 14.998,130.576 15.240 M96.226 32.358 C 96.104 32.555,96.274 32.819,96.602 32.946 C 96.965 33.085,97.200 32.944,97.200 32.587 C 97.200 31.940,96.575 31.793,96.226 32.358 M322.304 44.212 C 322.417 44.802,322.757 45.187,323.147 45.168 C 323.561 45.148,323.617 45.063,323.300 44.935 C 323.025 44.824,322.800 44.489,322.800 44.190 C 322.800 43.892,322.646 43.552,322.458 43.436 C 322.270 43.319,322.201 43.669,322.304 44.212 M62.741 57.696 C 61.939 58.523,61.409 59.200,61.563 59.200 C 61.928 59.200,64.599 56.446,64.373 56.302 C 64.278 56.242,63.544 56.869,62.741 57.696 M338.044 60.947 C 337.701 61.361,337.725 61.605,338.142 61.952 C 338.786 62.486,339.853 61.533,339.411 60.818 C 339.059 60.249,338.586 60.293,338.044 60.947 M339.200 61.133 C 339.200 61.654,338.724 62.001,338.338 61.761 C 337.924 61.506,338.281 60.800,338.824 60.800 C 339.031 60.800,339.200 60.950,339.200 61.133 M66.032 66.700 C 66.050 67.118,66.144 67.199,66.265 66.900 C 66.376 66.625,66.642 66.400,66.857 66.400 C 67.072 66.400,67.119 66.608,66.962 66.862 C 66.784 67.150,66.852 67.215,67.145 67.034 C 67.726 66.675,67.354 66.000,66.576 66.000 C 66.259 66.000,66.014 66.315,66.032 66.700 M389.200 140.949 C 389.200 140.989,389.560 141.330,390.000 141.707 C 390.613 142.232,390.800 142.263,390.800 141.843 C 390.800 141.541,390.440 141.199,390.000 141.084 C 389.560 140.969,389.200 140.908,389.200 140.949 M395.065 163.600 C 395.320 163.930,395.608 164.740,395.705 165.400 L 395.880 166.600 395.940 165.349 C 395.977 164.577,395.732 163.888,395.300 163.549 C 394.691 163.071,394.660 163.078,395.065 163.600 M5.714 170.600 C 5.717 171.700,5.795 172.103,5.887 171.495 C 5.979 170.886,5.977 169.986,5.882 169.495 C 5.787 169.003,5.711 169.500,5.714 170.600 M397.724 181.400 C 397.726 182.720,397.801 183.212,397.890 182.493 C 397.979 181.774,397.977 180.694,397.886 180.093 C 397.795 179.492,397.722 180.080,397.724 181.400 M4.128 187.600 C 4.128 189.030,4.201 189.615,4.289 188.900 C 4.378 188.185,4.378 187.015,4.289 186.300 C 4.201 185.585,4.128 186.170,4.128 187.600 M1.750 198.200 C 1.751 200.620,1.816 201.558,1.896 200.285 C 1.976 199.012,1.975 197.032,1.894 195.885 C 1.814 194.738,1.749 195.780,1.750 198.200 M1.709 206.800 C 1.709 207.790,1.787 208.195,1.882 207.700 C 1.978 207.205,1.978 206.395,1.882 205.900 C 1.787 205.405,1.709 205.810,1.709 206.800 M397.714 218.600 C 397.717 219.700,397.795 220.103,397.887 219.495 C 397.979 218.886,397.977 217.986,397.882 217.495 C 397.787 217.003,397.711 217.500,397.714 218.600 M397.700 225.612 C 396.545 226.077,396.566 226.200,397.800 226.200 C 398.350 226.200,398.800 225.975,398.800 225.700 C 398.800 225.425,398.755 225.211,398.700 225.225 C 398.645 225.239,398.195 225.413,397.700 225.612 M396.154 227.377 C 396.032 227.694,396.003 228.279,396.089 228.677 C 396.187 229.128,396.324 228.912,396.454 228.100 C 396.671 226.738,396.530 226.396,396.154 227.377 M12.752 260.887 C 12.937 261.998,12.993 262.055,13.119 261.254 C 13.201 260.733,13.103 260.143,12.901 259.941 C 12.679 259.719,12.621 260.093,12.752 260.887 M382.400 277.488 C 381.015 277.737,380.526 278.287,381.144 278.900 C 381.548 279.301,381.595 279.261,381.381 278.700 C 381.163 278.126,381.339 278.000,382.357 278.000 C 383.041 278.000,383.600 277.820,383.600 277.600 C 383.600 277.380,383.555 277.225,383.500 277.254 C 383.445 277.284,382.950 277.390,382.400 277.488 M34.032 307.457 C 34.014 307.929,34.295 308.428,34.657 308.566 C 35.148 308.755,35.212 308.690,34.910 308.309 C 34.689 308.029,34.407 307.530,34.285 307.200 C 34.134 306.790,34.053 306.872,34.032 307.457 M53.748 322.192 C 53.612 322.545,53.613 322.947,53.751 323.084 C 53.888 323.221,54.013 322.988,54.028 322.567 C 54.055 321.834,54.072 321.836,54.400 322.600 C 54.680 323.252,54.749 323.275,54.772 322.724 C 54.810 321.796,54.051 321.401,53.748 322.192 M46.197 322.404 C 46.045 322.651,46.028 322.961,46.160 323.093 C 46.292 323.225,46.400 323.123,46.400 322.867 C 46.400 322.610,46.692 322.400,47.049 322.400 C 47.608 322.400,47.621 322.493,47.149 323.065 C 46.678 323.635,46.686 323.702,47.200 323.532 C 47.530 323.423,47.800 323.081,47.800 322.772 C 47.800 322.075,46.574 321.794,46.197 322.404 M349.238 327.800 C 349.185 328.635,349.813 329.163,350.411 328.785 C 350.912 328.468,350.901 328.411,350.333 328.406 C 349.967 328.403,349.576 328.175,349.465 327.900 C 349.354 327.625,349.252 327.580,349.238 327.800 M306.189 359.617 C 305.827 360.203,306.354 360.793,307.013 360.540 C 307.336 360.416,307.600 360.173,307.600 360.000 C 307.600 359.504,306.452 359.193,306.189 359.617 M304.588 363.220 C 304.207 363.835,304.728 364.232,305.242 363.718 C 305.529 363.431,305.536 363.207,305.262 363.039 C 305.039 362.900,304.735 362.982,304.588 363.220 M258.500 389.076 C 258.885 389.176,259.515 389.176,259.900 389.076 C 260.285 388.975,259.970 388.893,259.200 388.893 C 258.430 388.893,258.115 388.975,258.500 389.076 M160.905 394.287 C 161.514 394.379,162.414 394.377,162.905 394.282 C 163.397 394.187,162.900 394.111,161.800 394.114 C 160.700 394.117,160.297 394.195,160.905 394.287 M195.700 397.898 C 197.845 397.970,201.355 397.970,203.500 397.898 C 205.645 397.826,203.890 397.767,199.600 397.767 C 195.310 397.767,193.555 397.826,195.700 397.898 " stroke="none" fill="#080404" fill-rule="evenodd"></path><path id="path3" d="" stroke="none" fill="#040c08" fill-rule="evenodd"></path><path id="path4" d="" stroke="none" fill="#04040c" fill-rule="evenodd"></path></g></svg>